<?xml version="1.0" standalone="no"?>
<!DOCTYPE svg PUBLIC "-//W3C//DTD SVG 20010904//EN"
 "http://www.w3.org/TR/2001/REC-SVG-20010904/DTD/svg10.dtd">
<svg version="1.0" xmlns="http://www.w3.org/2000/svg"
 width="660.000000pt" height="344.000000pt" viewBox="0 0 660.000000 344.000000"
 preserveAspectRatio="xMidYMid meet">
<metadata>
Created by potrace 1.16, written by Peter Selinger 2001-2019
</metadata>
<g transform="translate(0.000000,344.000000) scale(0.100000,-0.100000)"
fill="#000000" stroke="none">
<path d="M5528 3313 c7 -3 16 -2 19 1 4 3 -2 6 -13 5 -11 0 -14 -3 -6 -6z"/>
<path d="M5760 3295 c0 -8 2 -15 4 -15 2 0 6 7 10 15 3 8 1 15 -4 15 -6 0 -10
-7 -10 -15z"/>
<path d="M6096 3295 c4 -8 11 -15 16 -15 6 0 5 6 -2 15 -7 8 -14 15 -16 15 -2
0 -1 -7 2 -15z"/>
<path d="M3170 3224 c0 -7 -11 -15 -25 -18 -54 -14 -54 -85 0 -106 19 -7 25
-17 25 -40 0 -32 -26 -43 -36 -15 -8 21 -36 19 -32 -2 2 -10 17 -24 33 -33 17
-8 33 -19 37 -25 5 -7 8 -6 8 0 0 6 13 16 30 22 30 11 48 49 36 79 -3 9 -20
21 -36 27 -23 9 -30 17 -30 39 0 28 22 39 35 18 3 -5 13 -10 21 -10 22 0 -1
37 -28 46 -13 4 -26 12 -30 18 -6 8 -8 8 -8 0z m0 -70 c0 -15 -6 -24 -15 -24
-21 0 -30 27 -15 45 16 19 30 10 30 -21z m45 -94 c0 -16 -6 -26 -17 -28 -14
-3 -18 3 -18 28 0 25 4 31 18 28 11 -2 17 -12 17 -28z"/>
<path d="M5526 3216 c10 -8 21 -12 24 -10 5 6 -21 24 -34 24 -6 0 -1 -6 10
-14z"/>
<path d="M5569 3201 c14 -25 20 -27 17 -4 -2 9 -8 19 -15 21 -10 3 -10 0 -2
-17z"/>
<path d="M3315 3186 c-35 -28 -27 -46 10 -22 l25 16 0 -90 c0 -73 3 -90 15
-90 12 0 15 18 15 105 0 118 -7 127 -65 81z"/>
<path d="M3440 3195 c0 -11 12 -15 50 -15 28 0 50 -2 50 -5 0 -3 -18 -41 -40
-85 -45 -89 -45 -90 -27 -90 12 0 107 178 107 200 0 6 -31 10 -70 10 -56 0
-70 -3 -70 -15z"/>
<path d="M3641 3145 c-23 -35 -41 -74 -41 -85 0 -17 6 -20 50 -20 43 0 50 -3
50 -20 0 -11 7 -20 15 -20 8 0 15 9 15 20 0 11 7 20 15 20 8 0 15 7 15 15 0 8
-7 15 -15 15 -12 0 -15 14 -15 70 0 67 -1 70 -24 70 -19 0 -33 -14 -65 -65z
m59 -20 l0 -55 -36 0 c-27 0 -35 4 -31 14 9 22 57 96 62 96 3 0 5 -25 5 -55z"/>
<path d="M5742 3171 c-11 -6 -9 -9 6 -13 15 -4 19 -2 15 8 -6 16 -4 16 -21 5z"/>
<path d="M5744 2962 c3 -5 1 -12 -5 -14 -6 -2 -10 -12 -8 -23 4 -16 6 -15 16
8 9 19 9 28 1 33 -6 4 -8 3 -4 -4z"/>
<path d="M3481 2862 c-38 -20 -71 -73 -71 -112 0 -39 33 -91 71 -112 65 -36
145 -7 176 63 15 35 20 39 42 34 42 -11 43 -10 48 1 2 7 -12 16 -33 21 -29 6
-42 17 -59 48 -24 42 -74 75 -115 75 -14 0 -41 -8 -59 -18z"/>
<path d="M5916 2853 c-6 -14 -5 -15 5 -6 7 7 10 15 7 18 -3 3 -9 -2 -12 -12z"/>
<path d="M5724 2802 c-7 -5 -5 -13 6 -25 15 -15 18 -16 23 -3 7 17 -14 38 -29
28z"/>
<path d="M5777 2771 c-17 -6 -16 -8 9 -20 24 -10 26 -10 15 2 -9 12 -9 16 1
20 7 3 9 5 3 6 -5 0 -18 -4 -28 -8z"/>
<path d="M5834 2764 c-18 -14 -18 -14 6 -3 31 14 36 19 24 19 -6 0 -19 -7 -30
-16z"/>
<path d="M3820 2698 c1 -13 83 -68 101 -68 22 0 5 23 -38 50 -52 33 -63 36
-63 18z"/>
<path d="M3283 2669 c-42 -29 -54 -49 -32 -49 15 0 99 59 99 70 0 17 -24 10
-67 -21z"/>
<path d="M3896 2588 c3 -4 11 -5 19 -1 21 7 19 12 -4 10 -11 0 -18 -5 -15 -9z"/>
<path d="M3987 2584 c-8 -9 64 -93 81 -94 6 0 12 4 12 8 0 13 -86 93 -93 86z"/>
<path d="M3132 2537 c-44 -45 -50 -57 -29 -57 16 1 90 87 79 94 -5 3 -27 -14
-50 -37z"/>
<path d="M5890 2476 c0 -13 12 -16 67 -16 82 0 75 18 -11 27 -48 5 -56 3 -56
-11z"/>
<path d="M3605 2459 c-4 -6 -5 -12 -2 -15 2 -3 7 2 10 11 7 17 1 20 -8 4z"/>
<path d="M5723 2454 c-34 -14 -52 -34 -32 -34 23 0 119 34 119 42 0 12 -51 8
-87 -8z"/>
<path d="M6090 2452 c0 -10 21 -18 103 -38 35 -8 37 13 1 26 -44 17 -104 24
-104 12z"/>
<path d="M4120 2421 c0 -13 70 -101 80 -101 18 0 11 20 -22 65 -30 40 -58 58
-58 36z"/>
<path d="M2993 2372 c-35 -50 -39 -62 -23 -62 10 0 79 89 80 103 0 22 -29 1
-57 -41z"/>
<path d="M6294 2399 c-7 -13 -6 -14 33 -27 22 -7 35 -7 39 -1 7 13 6 14 -33
27 -22 7 -35 7 -39 1z"/>
<path d="M5562 2347 c-44 -45 -50 -57 -29 -57 22 0 92 79 81 90 -7 7 -24 -4
-52 -33z"/>
<path d="M4628 2368 c5 -5 16 -8 23 -6 8 3 3 7 -10 11 -17 4 -21 3 -13 -5z"/>
<path d="M5276 2342 c-3 -5 1 -9 9 -9 8 0 12 4 9 9 -3 4 -7 8 -9 8 -2 0 -6 -4
-9 -8z"/>
<path d="M3426 2305 c-11 -8 -15 -15 -9 -15 6 0 16 7 23 15 16 19 11 19 -14 0z"/>
<path d="M4250 2250 c0 -13 70 -90 81 -90 17 0 9 16 -27 58 -35 41 -54 52 -54
32z"/>
<path d="M5010 2250 c0 -5 7 -10 16 -10 8 0 12 5 9 10 -3 6 -10 10 -16 10 -5
0 -9 -4 -9 -10z"/>
<path d="M2881 2198 c-18 -33 -26 -57 -21 -62 5 -5 11 -8 13 -5 14 17 57 100
57 108 0 25 -20 8 -49 -41z"/>
<path d="M5437 2184 c-40 -66 -30 -93 11 -30 31 48 40 76 24 76 -4 0 -20 -21
-35 -46z"/>
<path d="M660 2180 c-8 -5 -10 -10 -5 -10 6 0 17 5 25 10 8 5 11 10 5 10 -5 0
-17 -5 -25 -10z"/>
<path d="M4386 2103 c-7 -7 72 -93 86 -93 19 0 5 29 -30 63 -40 39 -44 41 -56
30z"/>
<path d="M2791 2021 c-23 -55 -26 -71 -11 -71 10 0 50 84 50 106 0 29 -18 12
-39 -35z"/>
<path d="M5314 2005 c-20 -25 -34 -49 -30 -53 8 -8 86 71 86 88 0 21 -20 9
-56 -35z"/>
<path d="M3183 2005 c-3 -9 -3 -18 -1 -21 3 -3 8 4 11 16 6 23 -1 27 -10 5z"/>
<path d="M1539 1977 c26 -28 31 -32 31 -19 0 4 -13 16 -28 26 l-27 19 24 -26z"/>
<path d="M4540 1956 c0 -7 11 -21 25 -30 14 -9 36 -23 49 -32 47 -30 36 4 -13
40 -54 40 -61 42 -61 22z"/>
<path d="M847 1933 c-17 -17 -2 -23 53 -23 57 0 78 11 44 24 -21 8 -89 8 -97
-1z"/>
<path d="M703 1902 c-24 -9 -43 -22 -43 -30 0 -9 6 -12 18 -9 73 24 92 33 92
44 0 17 -15 15 -67 -5z"/>
<path d="M1030 1901 c0 -8 82 -41 102 -41 21 0 4 21 -28 35 -41 17 -74 20 -74
6z"/>
<path d="M5162 1873 c-59 -38 -62 -64 -4 -34 58 30 78 48 67 59 -6 6 -29 -3
-63 -25z"/>
<path d="M2705 1830 c-27 -53 -31 -70 -15 -70 10 0 60 91 60 110 0 25 -22 6
-45 -40z"/>
<path d="M4715 1851 c-7 -12 74 -51 106 -51 33 0 21 18 -23 33 -24 8 -50 18
-59 22 -10 3 -20 2 -24 -4z"/>
<path d="M542 1804 c-42 -36 -52 -54 -29 -54 22 1 92 69 81 80 -7 7 -24 -2
-52 -26z"/>
<path d="M1205 1831 c-5 -9 77 -71 96 -71 18 0 9 19 -18 38 -46 32 -71 43 -78
33z"/>
<path d="M4970 1811 c-30 -3 -55 -10 -54 -16 1 -25 124 -14 124 11 0 8 -3 13
-7 12 -5 -1 -33 -4 -63 -7z"/>
<path d="M1365 1720 c-8 -12 62 -79 83 -80 22 0 9 21 -35 57 -27 22 -44 30
-48 23z"/>
<path d="M402 1656 c-21 -29 -28 -47 -21 -51 5 -4 11 -5 13 -4 1 2 17 23 34
45 36 46 38 54 19 54 -8 0 -28 -20 -45 -44z"/>
<path d="M2624 1683 c-5 -10 -20 -35 -32 -55 -34 -56 -8 -57 28 -2 29 47 38
74 22 74 -4 0 -12 -8 -18 -17z"/>
<path d="M2810 1620 c-9 -6 -10 -10 -3 -10 6 0 15 5 18 10 8 12 4 12 -15 0z"/>
<path d="M1522 1585 c4 -21 85 -81 95 -71 8 8 -44 58 -80 78 -15 8 -18 6 -15
-7z"/>
<path d="M2610 1570 c-9 -6 -10 -10 -3 -10 6 0 15 5 18 10 8 12 4 12 -15 0z"/>
<path d="M306 1508 c-14 -25 -26 -50 -26 -56 0 -25 19 -10 44 35 35 62 18 82
-18 21z"/>
<path d="M2478 1488 c-37 -40 -46 -58 -30 -58 10 0 92 83 92 93 0 18 -28 2
-62 -35z"/>
<path d="M1685 1471 c-3 -6 13 -22 37 -37 45 -29 67 -35 66 -19 0 16 -95 67
-103 56z"/>
<path d="M2318 1373 c-46 -22 -63 -43 -35 -43 27 1 97 40 97 55 0 19 -4 18
-62 -12z"/>
<path d="M221 1331 c-24 -56 -26 -74 -9 -69 19 7 53 97 41 109 -7 7 -17 -7
-32 -40z"/>
<path d="M1872 1368 c6 -17 106 -49 114 -37 8 13 8 13 -50 33 -59 19 -69 20
-64 4z"/>
<path d="M2060 1321 c0 -13 26 -21 65 -21 39 0 65 8 65 21 0 5 -29 9 -65 9
-36 0 -65 -4 -65 -9z"/>
<path d="M174 1185 c-6 -11 -8 -31 -4 -45 l7 -25 7 27 c4 14 6 35 4 45 -4 17
-5 17 -14 -2z"/>
<path d="M3154 398 c3 -13 16 -60 27 -106 28 -106 45 -107 74 -4 11 39 22 72
25 72 3 0 14 -33 25 -72 29 -103 46 -102 74 4 11 46 24 93 27 106 5 16 2 22
-9 22 -11 0 -20 -22 -33 -75 -10 -41 -21 -75 -24 -75 -4 0 -15 34 -25 75 -14
54 -23 75 -35 75 -12 0 -21 -21 -35 -75 -10 -41 -21 -75 -25 -75 -3 0 -14 34
-24 75 -13 53 -22 75 -33 75 -11 0 -14 -6 -9 -22z"/>
<path d="M315 374 c-10 -10 -15 -29 -13 -48 3 -27 9 -33 48 -46 25 -8 51 -19
58 -23 20 -13 14 -37 -14 -49 -21 -10 -31 -9 -60 7 -41 22 -54 15 -25 -14 42
-42 141 -17 141 37 0 29 -15 42 -66 60 -55 20 -73 55 -35 67 24 7 61 -2 61
-16 0 -5 7 -9 15 -9 22 0 19 27 -4 40 -30 15 -88 12 -106 -6z"/>
<path d="M1230 286 c0 -86 3 -106 15 -106 11 0 15 18 17 78 l3 77 30 -73 c20
-47 35 -71 44 -70 8 2 26 30 39 63 35 89 42 89 42 2 0 -45 4 -77 10 -77 6 0
10 42 10 105 0 88 -3 105 -15 105 -9 0 -24 -20 -36 -47 -11 -27 -27 -64 -36
-83 l-15 -35 -33 80 c-25 60 -39 81 -54 83 -20 3 -21 -1 -21 -102z"/>
<path d="M2230 375 c0 -10 10 -15 30 -15 l30 0 0 -90 c0 -73 3 -90 15 -90 12
0 15 17 15 90 l0 90 35 0 c24 0 35 5 35 15 0 12 -16 15 -80 15 -64 0 -80 -3
-80 -15z"/>
<path d="M4170 375 c0 -10 11 -15 35 -15 l35 0 0 -90 c0 -73 3 -90 15 -90 12
0 15 17 15 90 l0 90 30 0 c20 0 30 5 30 15 0 12 -16 15 -80 15 -64 0 -80 -3
-80 -15z"/>
<path d="M5160 285 c0 -87 3 -105 15 -105 11 0 15 12 15 45 l0 45 45 0 c25 0
45 5 45 10 0 6 -20 10 -45 10 -45 0 -45 0 -45 35 l0 35 50 0 c38 0 50 4 50 15
0 12 -14 15 -65 15 l-65 0 0 -105z"/>
<path d="M6135 374 c-10 -10 -15 -29 -13 -48 3 -27 9 -33 48 -46 25 -8 51 -19
58 -23 20 -13 14 -37 -14 -49 -21 -10 -31 -9 -60 7 -41 22 -54 15 -25 -14 42
-42 141 -17 141 37 0 29 -15 42 -66 60 -55 20 -73 55 -35 67 24 7 61 -2 61
-16 0 -5 7 -9 15 -9 22 0 19 27 -4 40 -30 15 -88 12 -106 -6z"/>
</g>
</svg>
